# Blender v2.78 (sub 0) OBJ File: 'Reservior.blend'
# www.blender.org
mtllib reservior.mtl
usemtl ReserviorTexture
o Reservior
v 0.189846 0.749871 0.189830
v 0.813054 0.064342 0.189830
v 0.189846 0.064342 0.189830
v 0.813054 0.749871 0.189830
v 0.189846 0.064342 0.813038
v 0.813054 0.064342 0.813038
v 0.813054 0.749871 0.813038
v 0.189846 0.749871 0.813038
v 1.000016 0.002021 0.002867
v 0.002884 0.002021 1.000000
v 0.002884 0.002021 0.002867
v 1.000016 0.002021 1.000000
v 0.127525 0.749871 0.127509
v 0.875375 0.749871 0.127509
v 0.875375 0.749871 0.875358
v 0.127525 0.749871 0.875358
vt 0.9062 0.0938
vt 0.5938 0.0938
vt 0.5938 0.4062
vt 0.9062 0.4062
vt 0.9062 0.4062
vt 0.9062 0.0938
vt 0.5938 0.0938
vt 0.5938 0.4062
vt 0.9062 0.4062
vt 0.5938 0.0938
vt 0.5938 0.4062
vt 0.9062 0.4062
vt 0.9062 0.0938
vt 0.5938 0.4062
vt 0.9062 0.0938
vt 0.5938 0.0938
vt 1.0000 1.0000
vt 0.5000 0.5000
vt 1.0000 0.5000
vt 0.5000 1.0000
vt 0.4375 1.0000
vt 0.0000 0.6250
vt 0.5000 0.6250
vt 0.0625 1.0000
vt 0.4375 1.0000
vt -0.0000 0.6250
vt 0.5000 0.6250
vt 0.0625 1.0000
vt 0.4375 1.0000
vt -0.0000 0.6250
vt 0.5000 0.6250
vt 0.0625 1.0000
vt 0.5000 0.6250
vt 0.0625 1.0000
vt -0.0000 0.6250
vt 0.4375 1.0000
vt 0.9375 0.4375
vt 0.9375 0.0625
vt 0.5625 0.4375
vt 0.5938 0.0938
vt 0.5625 0.0625
vt 0.9062 0.0938
vn 0.0000 0.0000 1.0000
vn 0.0000 1.0000 0.0000
vn 0.0000 0.0000 -1.0000
vn 1.0000 0.0000 0.0000
vn -1.0000 0.0000 0.0000
vn 0.0000 -1.0000 0.0000
vn 0.0000 0.1644 -0.9864
vn 0.0000 0.1644 0.9864
vn -0.9864 0.1644 0.0000
vn 0.9864 0.1644 0.0000
f 1/1/1 3/2/1 2/3/1
f 2/3/1 4/4/1 1/1/1
f 5/5/2 6/6/2 2/7/2
f 2/7/2 3/8/2 5/5/2
f 7/9/3 6/6/3 5/10/3
f 5/10/3 8/11/3 7/9/3
f 3/8/4 1/12/4 8/13/4
f 8/13/4 5/10/4 3/8/4
f 7/14/5 4/4/5 2/15/5
f 2/15/5 6/16/5 7/14/5
f 9/17/6 10/18/6 11/19/6
f 10/18/6 9/17/6 12/20/6
f 13/21/7 9/22/7 11/23/7
f 9/22/7 13/21/7 14/24/7
f 15/25/8 10/26/8 12/27/8
f 10/26/8 15/25/8 16/28/8
f 16/29/9 11/30/9 10/31/9
f 11/30/9 16/29/9 13/32/9
f 9/33/10 15/34/10 12/35/10
f 15/34/10 9/33/10 14/36/10
f 15/37/2 14/38/2 7/9/2
f 7/9/2 16/39/2 15/37/2
f 7/9/2 8/11/2 16/39/2
f 8/11/2 1/40/2 16/39/2
f 14/38/2 13/41/2 4/42/2
f 4/42/2 7/9/2 14/38/2
f 13/41/2 1/40/2 4/42/2
f 13/41/2 16/39/2 1/40/2